<?xml version="1.0" standalone="no"?>
<!DOCTYPE svg PUBLIC "-//W3C//DTD SVG 20010904//EN"
 "http://www.w3.org/TR/2001/REC-SVG-20010904/DTD/svg10.dtd">
<svg version="1.0" xmlns="http://www.w3.org/2000/svg"
 width="700.000000pt" height="700.000000pt" viewBox="0 0 700.000000 700.000000"
 preserveAspectRatio="xMidYMid meet">
<metadata>
Created by potrace 1.11, written by Peter Selinger 2001-2013
</metadata>
<g transform="translate(0.000000,700.000000) scale(0.100000,-0.100000)"
fill="#000000" stroke="none">
<path d="M3278 6996 c-1 -2 -42 -6 -89 -10 -47 -4 -95 -8 -105 -10 -10 -2 -46
-7 -79 -11 -59 -7 -79 -10 -125 -20 -34 -7 -69 -14 -105 -21 -16 -3 -66 -14
-110 -25 -44 -12 -87 -22 -95 -24 -123 -28 -424 -142 -595 -226 -411 -201
-785 -482 -1078 -810 l-57 -64 1330 -3 c731 -1 1929 -1 2660 0 l1331 3 -62 68
c-508 559 -1163 934 -1899 1086 -52 11 -117 23 -145 27 -27 4 -52 8 -55 9 -3
1 -41 5 -85 10 -44 4 -89 10 -100 12 -25 4 -532 13 -537 9z"/>
<path d="M258 4817 c-99 -244 -179 -531 -212 -752 -2 -16 -8 -50 -12 -75 -38
-244 -40 -684 -3 -945 21 -153 37 -237 70 -375 30 -124 116 -397 143 -455 8
-16 24 -55 36 -85 27 -69 139 -292 193 -385 106 -182 274 -414 421 -580 l35
-40 1 1892 0 1892 -318 0 -317 1 -37 -93z"/>
<path d="M2057 4902 c-6 -13 -2 -2852 5 -2854 5 -2 164 125 393 314 32 26 308
251 474 386 83 68 157 129 164 135 7 7 59 50 117 97 58 47 114 92 125 101 11
10 88 72 170 139 83 67 168 137 190 155 22 19 121 100 220 180 99 81 191 157
205 168 14 12 59 49 100 82 41 33 77 62 80 65 5 5 97 81 130 107 8 7 72 58
141 115 69 57 145 119 169 138 38 30 103 84 275 226 22 18 110 89 195 159 85
69 164 134 175 143 11 9 55 46 98 81 42 35 77 65 77 67 0 7 -3500 3 -3503 -4z"/>
<path d="M6750 4718 c-14 -11 -50 -43 -81 -72 -63 -58 -211 -192 -243 -219
-12 -10 -39 -35 -61 -55 -22 -21 -80 -73 -130 -117 -49 -44 -102 -91 -116
-105 -14 -14 -62 -56 -105 -95 -73 -65 -182 -163 -194 -175 -3 -3 -48 -43
-100 -90 -119 -107 -187 -168 -221 -200 -14 -14 -59 -54 -100 -89 -41 -36 -79
-69 -84 -75 -6 -6 -55 -51 -110 -101 -55 -49 -107 -96 -116 -105 -9 -8 -34
-30 -55 -49 -58 -51 -218 -195 -224 -201 -3 -3 -77 -70 -165 -149 -88 -79
-183 -165 -211 -190 -102 -93 -233 -212 -389 -352 -88 -78 -165 -148 -171
-154 -6 -5 -48 -44 -94 -85 -46 -41 -104 -94 -129 -116 -26 -23 -66 -60 -91
-82 l-44 -40 1523 1 1524 2 58 115 c200 394 326 835 367 1280 14 156 6 633
-13 725 -2 11 -7 40 -10 65 -3 25 -7 56 -10 70 -3 14 -8 41 -11 60 -7 47 -53
257 -64 295 -12 41 -102 320 -104 322 0 1 -12 -8 -26 -19z"/>
<path d="M1150 907 c55 -52 148 -128 240 -198 47 -35 87 -67 88 -71 2 -5 8 -8
13 -8 6 0 40 -21 76 -46 268 -187 715 -388 1048 -470 238 -59 381 -83 590
-101 176 -15 552 -9 723 13 283 35 683 140 907 239 28 12 70 30 95 41 68 29
264 129 333 171 191 113 438 293 567 412 l55 51 -2385 0 -2384 0 34 -33z"/>
</g>
</svg>
